External Loads File
version=1
nRows=86
nColumns=13
Range=5.000000e-03-10 seconds
endheader
time 	forceRightX 	forceRightY 	forceRightZ 	pointRightX 	pointRightY 	pointRightZ 	forceLeftX 	forceLeftY 	forceLeftZ 	pointLeftX 	pointLeftY 	pointLeftZ 		
7.505000 16.100053 26.532190 -0.000000 0.189194 0.422081 -0.168540 28.018115 693.324853 -0.000000 0.374654 0.176196 -0.413540
7.510000 18.241069 27.282727 -0.000000 0.198710 0.429621 -0.167949 52.146299 704.403130 -0.000000 0.366846 0.168938 -0.413462
7.515000 19.331921 27.511148 -0.000000 0.205603 0.436734 -0.168977 70.774050 714.745340 -0.000000 0.358735 0.162270 -0.413331
7.520000 19.748104 27.234393 -0.000000 0.214211 0.443102 -0.169283 91.116768 723.950333 -0.000000 0.350373 0.156139 -0.413154
7.525000 19.501291 26.741073 -0.000000 0.223165 0.448919 -0.169408 110.759706 732.401524 -0.000000 0.341741 0.150466 -0.412999
7.530000 18.670025 26.258635 -0.000000 0.232401 0.454090 -0.169615 129.167761 740.409983 -0.000000 0.332896 0.145396 -0.412872
7.535000 17.324083 25.960051 -0.000000 0.241600 0.458721 -0.169602 145.794865 748.235490 -0.000000 0.323884 0.140874 -0.412684
7.540000 15.609565 25.897693 -0.000000 0.251615 0.462732 -0.169684 162.764804 755.469903 -0.000000 0.314668 0.137001 -0.412599
7.545000 13.496049 26.193755 -0.000000 0.261322 0.466088 -0.169754 177.913385 762.457558 -0.000000 0.305281 0.133646 -0.412543
7.550000 11.072032 26.885086 -0.000000 0.271442 0.468722 -0.169949 193.012115 768.660117 -0.000000 0.295801 0.130892 -0.412486
7.555000 8.358911 28.038801 -0.000000 0.281501 0.470804 -0.170085 207.483757 773.937858 -0.000000 0.286185 0.128793 -0.412423
7.560000 5.430834 29.674911 -0.000000 0.291462 0.472233 -0.170016 221.427187 777.823417 -0.000000 0.276481 0.127395 -0.412442
7.565000 2.426407 31.792534 -0.000000 0.301482 0.473068 -0.170230 235.591445 779.435381 -0.000000 0.266653 0.126609 -0.412457
7.570000 -0.523927 34.394013 -0.000000 0.311413 0.473251 -0.170388 249.397819 778.033435 -0.000000 0.256852 0.126551 -0.412498
7.575000 -3.244277 37.479506 -0.000000 0.321355 0.472872 -0.170760 263.026707 772.429771 -0.000000 0.247048 0.127113 -0.412549
7.580000 -5.646244 41.079737 -0.000000 0.330966 0.471897 -0.170885 275.192090 761.790187 -0.000000 0.237341 0.128420 -0.412600
7.585000 -7.618655 45.318942 -0.000000 0.340412 0.470200 -0.170986 285.566994 745.018476 -0.000000 0.227828 0.130330 -0.412503
7.590000 -9.113539 50.465895 -0.000000 0.349472 0.468062 -0.170952 292.825736 721.572673 -0.000000 0.218590 0.133002 -0.412291
7.595000 -10.053558 56.965599 -0.000000 0.358113 0.465329 -0.170992 296.208390 690.983118 -0.000000 0.209653 0.136247 -0.412387
7.600000 -10.304081 65.388368 -0.000000 0.366388 0.462043 -0.171008 295.508227 652.967957 -0.000000 0.200956 0.140227 -0.412500
7.605000 -9.831271 76.309428 -0.000000 0.374192 0.458188 -0.170821 289.609862 608.276791 -0.000000 0.192803 0.144742 -0.412629
7.610000 -8.595065 90.262839 -0.000000 0.381445 0.453782 -0.170556 278.557093 557.855586 -0.000000 0.185184 0.149805 -0.412576
7.615000 -6.726181 107.664407 -0.000000 0.388211 0.448828 -0.170124 262.615462 503.150326 -0.000000 0.178210 0.155219 -0.412771
7.620000 -4.473129 128.765086 -0.000000 0.394431 0.443625 -0.169736 242.965436 445.567509 -0.000000 0.171597 0.161332 -0.412917
7.625000 -2.127853 153.614254 -0.000000 0.400306 0.437680 -0.169268 221.242644 386.468937 -0.000000 0.165012 0.167787 -0.412658
7.630000 -0.549079 182.037404 -0.000000 0.405736 0.431386 -0.168958 197.765581 327.965669 -0.000000 0.159226 0.174897 -0.412570
7.635000 0.151413 213.625398 -0.000000 0.410908 0.424320 -0.168801 174.443873 271.020253 -0.000000 0.153783 0.182605 -0.412500
7.640000 -0.461811 247.655393 -0.000000 0.415922 0.416613 -0.168754 151.772573 217.061556 -0.000000 0.149201 0.190844 -0.412558
7.645000 -2.462027 283.013363 -0.000000 0.420529 0.408060 -0.168710 130.379513 167.154941 -0.000000 0.145419 0.199286 -0.413073
7.650000 -5.934120 318.222367 -0.000000 0.424597 0.399413 -0.168721 110.676523 122.270003 -0.000000 0.142025 0.207882 -0.413241
7.655000 -10.423036 351.746065 -0.000000 0.428074 0.390424 -0.168570 93.208236 82.916433 -0.000000 0.138958 0.216591 -0.413181
7.660000 -15.394507 382.393579 -0.000000 0.431166 0.380948 -0.168596 78.240226 49.303531 -0.000000 0.136572 0.225568 -0.413303
7.665000 -20.853387 409.502846 -0.000000 0.433794 0.371207 -0.168678 65.738335 21.444161 -0.000000 0.134369 0.234559 -0.412934
7.670000 -26.395554 432.930373 -0.000000 0.435906 0.360984 -0.168889 55.592727 -0.966158 -0.000000 0.133002 0.243873 -0.413102
7.675000 -32.443131 452.820952 -0.000000 0.437451 0.350603 -0.168876 47.591038 -18.282214 -0.000000 0.132129 0.253132 -0.413329
7.680000 -37.982055 469.616653 -0.000000 0.438525 0.340007 -0.168791 41.443765 -31.137257 -0.000000 0.131876 0.262782 -0.413402
7.685000 -43.652441 483.764887 -0.000000 0.439213 0.329290 -0.168893 36.922037 -40.012854 -0.000000 0.132112 0.272145 -0.413436
7.690000 -48.120841 495.899488 -0.000000 0.439166 0.318431 -0.168754 33.706241 -45.576546 -0.000000 0.132987 0.281852 -0.413460
7.695000 -51.719309 506.467157 -0.000000 0.438347 0.307644 -0.168980 31.616417 -48.389090 -0.000000 0.134367 0.291518 -0.413493
7.700000 -53.525476 515.994410 -0.000000 0.437243 0.296855 -0.169104 30.360170 -49.102786 -0.000000 0.136322 0.301314 -0.413584
7.705000 -53.193803 524.891929 -0.000000 0.435463 0.286124 -0.169011 29.725770 -48.285407 -0.000000 0.138749 0.311240 -0.413747
7.710000 -49.570844 533.521057 -0.000000 0.432978 0.274923 -0.168778 29.498627 -46.478041 -0.000000 0.141745 0.321142 -0.413704
7.715000 -44.373730 541.840081 -0.000000 0.429990 0.264445 -0.168907 29.752532 -43.975303 -0.000000 0.145269 0.331085 -0.413673
7.720000 -36.987096 550.003448 -0.000000 0.426343 0.254259 -0.168907 30.325175 -41.111267 -0.000000 0.149304 0.340857 -0.413560
7.725000 -26.473717 558.164239 -0.000000 0.422136 0.244103 -0.168862 31.056883 -38.160954 -0.000000 0.153925 0.350655 -0.413435
7.730000 -14.173724 566.333644 -0.000000 0.417315 0.234330 -0.168758 31.992613 -35.225482 -0.000000 0.158935 0.360141 -0.413344
7.735000 0.410909 574.617271 -0.000000 0.411897 0.224808 -0.168702 33.036741 -32.474568 -0.000000 0.164555 0.369351 -0.413292
7.740000 17.252730 583.071254 -0.000000 0.405902 0.215571 -0.168515 34.086258 -30.006910 -0.000000 0.170676 0.378400 -0.413319
7.745000 36.060792 591.760162 -0.000000 0.399363 0.206616 -0.168335 35.035594 -27.852532 -0.000000 0.177245 0.387276 -0.413403
7.750000 55.517308 600.855156 -0.000000 0.392310 0.198267 -0.168224 35.874634 -25.958642 -0.000000 0.184197 0.395694 -0.413474
7.755000 76.404606 610.395852 -0.000000 0.384807 0.190162 -0.167937 36.547872 -24.411091 -0.000000 0.191663 0.403857 -0.413652
7.760000 97.330918 620.604172 -0.000000 0.376857 0.182569 -0.167577 37.092439 -23.176120 -0.000000 0.199381 0.411544 -0.413788
7.765000 118.527639 631.486983 -0.000000 0.368562 0.175392 -0.167323 37.450987 -22.329567 -0.000000 0.207615 0.418827 -0.413942
7.770000 138.838677 643.212653 -0.000000 0.360012 0.168843 -0.167169 37.581826 -21.852668 -0.000000 0.216133 0.425625 -0.413771
7.775000 158.342762 655.617364 -0.000000 0.351185 0.162641 -0.166533 37.362272 -21.701060 -0.000000 0.224925 0.431730 -0.413696
7.780000 176.334831 668.485388 -0.000000 0.342305 0.156938 -0.166421 36.703929 -21.637949 -0.000000 0.233864 0.437307 -0.413608
7.785000 194.083851 680.795242 -0.000000 0.333252 0.151684 -0.166455 35.526610 -21.452172 -0.000000 0.243280 0.442497 -0.413655
7.790000 210.424660 691.894208 -0.000000 0.324029 0.147229 -0.166351 33.930869 -20.806390 -0.000000 0.252715 0.446911 -0.413765
7.795000 226.046157 700.449691 -0.000000 0.314645 0.143287 -0.166140 32.027422 -19.467706 -0.000000 0.262288 0.450706 -0.413823
7.800000 241.068503 705.204534 -0.000000 0.305041 0.140015 -0.165793 29.958323 -17.152196 -0.000000 0.272011 0.453842 -0.413922
7.805000 254.777910 705.218863 -0.000000 0.295440 0.137286 -0.165699 27.859659 -13.575764 -0.000000 0.281826 0.456409 -0.414099
7.810000 267.279797 699.395291 -0.000000 0.285761 0.135122 -0.165556 25.805725 -8.572386 -0.000000 0.291848 0.458236 -0.414206
7.815000 277.650415 687.221179 -0.000000 0.276047 0.133790 -0.165388 23.843613 -2.013135 -0.000000 0.301840 0.459214 -0.414530
7.820000 285.043269 668.494739 -0.000000 0.266448 0.133097 -0.165157 21.970812 6.145980 -0.000000 0.311757 0.459636 -0.414792
7.825000 290.039218 642.724970 -0.000000 0.256637 0.133113 -0.165141 20.173589 15.778639 -0.000000 0.321745 0.459319 -0.414777
7.830000 290.480353 610.874511 -0.000000 0.246994 0.133379 -0.165017 18.355600 26.701790 -0.000000 0.331293 0.458413 -0.415274
7.835000 286.958928 572.892202 -0.000000 0.237716 0.134670 -0.165051 16.424822 38.554251 -0.000000 0.340750 0.456814 -0.415535
7.840000 279.650534 529.020194 -0.000000 0.228533 0.136589 -0.164982 14.290931 50.951904 -0.000000 0.350111 0.454749 -0.415766
7.845000 268.009827 480.081859 -0.000000 0.219556 0.139380 -0.164963 11.783719 63.547943 -0.000000 0.358986 0.452216 -0.415937
7.850000 252.294375 426.852078 -0.000000 0.210874 0.142833 -0.164859 8.809099 76.104827 -0.000000 0.367583 0.449181 -0.416042
7.855000 232.745838 370.567863 -0.000000 0.202618 0.146963 -0.164702 5.332027 88.627744 -0.000000 0.376334 0.446222 -0.416038
7.860000 210.310090 312.438281 -0.000000 0.194797 0.151610 -0.164566 1.547355 101.382858 -0.000000 0.385282 0.442101 -0.415996
7.865000 185.443065 254.235039 -0.000000 0.186456 0.156820 -0.165073 -2.372147 114.841811 -0.000000 0.394168 0.437710 -0.415716
7.870000 158.189766 198.219411 -0.000000 0.179395 0.162427 -0.164913 -6.564018 129.546584 -0.000000 0.403380 0.432506 -0.415645
7.875000 129.736682 145.852297 -0.000000 0.172784 0.168437 -0.164804 -10.868721 146.042232 -0.000000 0.412378 0.426722 -0.415269
7.880000 101.333015 98.294174 -0.000000 0.166479 0.175057 -0.164678 -15.020001 164.812086 -0.000000 0.421305 0.420475 -0.414791
7.885000 73.999600 56.502337 -0.000000 0.160854 0.182017 -0.164639 -18.885959 186.183325 -0.000000 0.430362 0.413425 -0.414692
7.890000 48.608609 21.104626 -0.000000 0.155773 0.189350 -0.164612 -22.710769 210.249646 -0.000000 0.439036 0.406172 -0.414146
7.895000 26.020588 -7.919971 -0.000000 0.151068 0.197111 -0.164700 -26.035559 236.934166 -0.000000 0.447318 0.398062 -0.413120
7.900000 6.731753 -30.700363 -0.000000 0.146954 0.205318 -0.164311 -29.167299 265.820125 -0.000000 0.455575 0.389885 -0.412499
7.905000 -9.008698 -47.643529 -0.000000 0.143128 0.213829 -0.164498 -32.072875 296.342035 -0.000000 0.463594 0.381140 -0.411786
7.910000 -21.130474 -59.231528 -0.000000 0.139784 0.222625 -0.164587 -35.370772 327.772197 -0.000000 0.471343 0.372174 -0.410991
7.915000 -29.876916 -65.920333 -0.000000 0.136936 0.231923 -0.164570 -38.786901 359.409324 -0.000000 0.478866 0.362593 -0.410134
7.920000 -35.463168 -68.194107 -0.000000 0.134282 0.241546 -0.164839 -42.714538 390.401960 -0.000000 0.486099 0.352693 -0.409289
7.925000 -38.110099 -66.621144 -0.000000 0.132424 0.251171 -0.164961 -47.789982 419.845693 -0.000000 0.493001 0.342531 -0.408371
7.930000 -38.242603 -61.761100 -0.000000 0.131086 0.261104 -0.165109 -53.616771 447.045980 -0.000000 0.499659 0.332156 -0.406941
